PathFileType	4	(X/Y/Z)	P:\Projects\LMB_grand_challenge_database\project_only\opensim\experimental_data\SixthCompetition/DM_ngait_og3_new.trc
DataRate	CameraRate	NumFrames	NumMarkers	Units	OrigDataRate	OrigDataStartFrame	OrigNumFrames
120	120	5	68	mm	120	188	302
Frame#	Time	Sternum			Neck			R_Shoulder			L_Shoulder			Xiphoid			Thoracic			R_Asis			L_Asis			R_Psis			L_Psis			Lumbar			R_Elbow			R_ElbowMedial			R_ShoulderAnterior			R_ShoulderPosterior			R_Wrist			R_Radius			R_Ulna			L_Elbow			L_ElbowMedial			L_ShoulderAnterior			L_ShoulderPosterior			L_Wrist			L_Ulna			L_Radius			L_Thigh_Superior			L_Thigh_Inferior			L_Thigh_Lateral			L_Knee_Lateral			L_Knee_Medial			L_Patella			L_Shank_Superior			L_Shank_Inferior			L_Shank_Lateral			L_Ankle_Lateral			L_Ankle_Medial			R_Thigh_Superior			R_Thigh_Inferior			R_Thigh_Lateral			R_Knee_Lateral			R_Knee_Medial			R_Patella			R_Shank_Superior			R_Shank_Inferior			R_Shank_Lateral			R_Ankle_Lateral			RankleMedial			R_Heel			R_Toe			R_Midfoot_Medial			R_Midfoot_Lateral			R_Hindfoot			R_Midfoot_Superior			R_ToeMedial			R_ToeLateral			L_Heel			L_Toe			L_Midfoot_Medial			L_Midfoot_Lateral			L_Hindfoot			L_Midfoot_Superior			L_ToeMedial			L_ToeLateral			Oglobal			Sacral			Xglobal			Yglobal			Zglobal			
		X1	Y1	Z1	X2	Y2	Z2	X3	Y3	Z3	X4	Y4	Z4	X5	Y5	Z5	X6	Y6	Z6	X7	Y7	Z7	X8	Y8	Z8	X9	Y9	Z9	X10	Y10	Z10	X11	Y11	Z11	X12	Y12	Z12	X13	Y13	Z13	X14	Y14	Z14	X15	Y15	Z15	X16	Y16	Z16	X17	Y17	Z17	X18	Y18	Z18	X19	Y19	Z19	X20	Y20	Z20	X21	Y21	Z21	X22	Y22	Z22	X23	Y23	Z23	X24	Y24	Z24	X25	Y25	Z25	X26	Y26	Z26	X27	Y27	Z27	X28	Y28	Z28	X29	Y29	Z29	X30	Y30	Z30	X31	Y31	Z31	X32	Y32	Z32	X33	Y33	Z33	X34	Y34	Z34	X35	Y35	Z35	X36	Y36	Z36	X37	Y37	Z37	X38	Y38	Z38	X39	Y39	Z39	X40	Y40	Z40	X41	Y41	Z41	X42	Y42	Z42	X43	Y43	Z43	X44	Y44	Z44	X45	Y45	Z45	X46	Y46	Z46	X47	Y47	Z47	X48	Y48	Z48	X49	Y49	Z49	X50	Y50	Z50	X51	Y51	Z51	X52	Y52	Z52	X53	Y53	Z53	X54	Y54	Z54	X55	Y55	Z55	X56	Y56	Z56	X57	Y57	Z57	X58	Y58	Z58	X59	Y59	Z59	X60	Y60	Z60	X61	Y61	Z61	X62	Y62	Z62	X63	Y63	Z63	X64	Y64	Z64	X65	Y65	Z65	X66	Y66	Z66	X67	Y67	Z67	X68	Y68	Z68	

189	3.766667	574.075	1443.16	281.943	724.1420000000001	1345.26	279.997	657.571	1382.92	451.402	643.547	1401.84	112.914	732.211	1182.56	278.721	470.556	1256.82	271.062	644.191	953.5700000000001	398.654	660.251	973.427	124.355	448.339	1005.7	284.004	451.17	1004.75	204.896	452.101	1054.47	250.488	598.831	1067.24	536.824	-0	0	0	-0	0	0	-0	0	0	678.59	799.313	520.09	686.545	809.864	477.656	631.802	800.921	522.989	740.651	1085.31	25.969	-0	0	0	-0	0	0	-0	0	0	951.282	930.9640000000001	93.83459999999999	914.223	913.379	64.80540000000001	923.441	941.088	133.697	559.332	793.748	99.00879999999999	527.003	576.2380000000001	155.211	596.855	654.763	171.934	-0	0	0	-0	0	0	527.021	473.234	221.085	441.018	434.92	153.383	303.142	201.85	161.979	397.089	299.388	230.908	-0	0	0	-0	0	0	594.24	781.357	425.028	690.4059999999999	586.397	380.903	707.938	727.114	398.691	-0	0	0	-0	0	0	795.318	536.3339999999999	315.759	723.795	389.031	388.075	799.758	194.446	370.013	818.271	337.289	307.356	-0	0	0	-0	0	0	774.683	52.9435	309.759	1061.21	131.593	322.785	996.884	91.8862	265.873	984.676	78.1369	381.694	879.5650000000001	43.5583	365.51	911.544	152.856	323.174	1033.14	111.083	278.095	1025.95	102.973	368.976	180.647	106.207	211.098	468.269	43.7682	227.408	384.553	30.5666	273.294	379.648	30.5905	158.918	273.443	49.2673	160.667	352.858	125.152	215.715	426.344	30.2502	268.347	432.192	30.9997	172.684	-0	0	0	449.755	1005.22	244.45	-200	0	0	-0	0	200	-0	200	0	
190	3.775	583.035	1441.89	283.677	733.092	1343.94	281.319	666.429	1381.16	452.936	651.999	1401.17	114.511	741.487	1181.31	279.674	479.669	1255.36	272.529	654.3630000000001	952.2910000000001	398.978	669.553	972.6	124.482	458.054	1004.08	284.95	460.689	1003.38	205.8	461.599	1052.98	251.456	607.5700000000001	1065.17	538.192	-0	0	0	-0	0	0	-0	0	0	686.09	797.523	520.827	693.6799999999999	807.548	478.426	639.016	798.88	523.713	749.7190000000001	1084.41	28.0434	-0	0	0	-0	0	0	-0	0	0	959.241	928.498	95.2294	922.0309999999999	911.074	66.0527	931.76	938.427	135.133	567.454	793.203	98.8125	534.6	575.4690000000001	154.817	604.904	653.894	170.73	-0	0	0	-0	0	0	534.042	470.896	221.202	447.284	434.771	153.315	306.206	203.605	162.029	401.88	299.783	230.526	-0	0	0	-0	0	0	604.6609999999999	779.648	424.325	700.724	584.617	380.162	718.784	725.25	398.656	-0	0	0	-0	0	0	804.2089999999999	534.476	314.549	731.499	387.414	387.102	804.778	192.004	368.915	825.106	334.223	306.102	-0	0	0	-0	0	0	777.023	53.5473	309.008	1065.4	122.622	320.841	1000.3	84.5317	264.252	987.956	72.10769999999999	380.207	881.485	40.5789	364.717	916.486	148.304	321.221	1036.62	102.468	276.579	1029.27	95.6319	367.484	182.474	109.604	211.426	468.505	43.2048	228.089	385.168	30.2379	272.936	380.022	30.7184	158.571	274.009	51.2843	160.664	354.815	125.528	215.725	426.538	30.192	268.277	432.365	30.8571	172.591	-0	0	0	459.372	1003.73	245.375	-200	0	0	-0	0	200	-0	200	0	
191	3.783333	591.986	1440.73	285.672	742.127	1342.95	282.62	675.765	1379.35	454.565	660.688	1400.71	116.229	750.789	1180.24	280.64	489.046	1253.87	273.975	664.5	951.432	399.429	679.067	971.533	124.664	467.855	1002.58	285.671	470.417	1002.08	206.626	471.223	1051.61	252.122	615.87	1063.36	539.191	-0	0	0	-0	0	0	-0	0	0	693.14	794.97	521.249	700.881	805.442	479.138	646.14	796.9930000000001	524.622	758.701	1083.66	29.9496	-0	0	0	-0	0	0	-0	0	0	966.699	925.4109999999999	96.1748	929.163	908.287	67.208	939.441	935.713	136.176	575.8150000000001	792.694	98.7818	542.322	574.547	153.987	613.229	652.778	169.736	-0	0	0	-0	0	0	541.494	469.095	220.566	454.017	434.578	152.965	309.381	205.396	162.265	406.933	300.035	230.208	-0	0	0	-0	0	0	614.948	777.802	423.407	710.413	582.869	379.497	729.345	723.201	398.683	-0	0	0	-0	0	0	813.1559999999999	532.6950000000001	313.291	739.473	385.663	386.378	810.471	189.886	367.808	831.944	331.556	304.991	-0	0	0	-0	0	0	779.336	54.0521	309.322	1069.81	112.87	318.747	1003.11	77.0822	262.316	991.465	65.5158	378.433	883.426	37.5471	363.975	921.902	143.801	319.813	1040.02	93.5472	274.801	1033.12	87.4494	365.589	184.432	113.39	211.833	468.419	43.1897	227.616	385.799	30.7165	273.349	380.44	30.743	158.992	274.589	53.189	161.177	357.262	126.276	215.742	426.631	30.1296	268.263	432.463	30.6813	172.582	-0	0	0	469.136	1002.33	246.148	-200	0	0	-0	0	200	-0	200	0	
192	3.791667	601.014	1439.71	287.834	751.308	1341.99	284.389	684.981	1377.69	456.505	669.506	1400.41	118.432	760.308	1179.26	281.542	498.358	1252.51	275.385	674.871	950.503	399.701	688.546	970.896	124.815	477.78	1001.18	286.502	480.11	1000.87	207.539	480.884	1050.31	253.032	624.582	1061.53	540.353	-0	0	0	-0	0	0	-0	0	0	700.343	792.678	521.922	708.111	802.934	479.669	653.1950000000001	795.048	525.693	767.2910000000001	1083.17	31.967	-0	0	0	-0	0	0	-0	0	0	973.553	922.08	96.84099999999999	935.949	905.174	68.2141	946.855	932.313	137.035	584.664	792.056	98.81619999999999	550.801	573.856	153.422	621.864	651.657	168.438	-0	0	0	-0	0	0	550.4	467.661	219.521	461.329	433.935	152.898	312.948	207.486	162.374	412.431	300.403	230.133	-0	0	0	-0	0	0	627.149	775.948	421.655	719.905	581.234	378.87	739.879	721.1609999999999	398.848	-0	0	0	-0	0	0	821.593	530.85	311.809	747.678	384.063	386.081	816.64	187.621	367.375	839.011	329.172	304.197	-0	0	0	-0	0	0	781.6369999999999	55.2671	309.398	1074.42	102.353	316.652	1005.86	68.9709	260.91	994.504	58.088	377.121	885.263	34.433	363.477	927.717	139.003	318.79	1043.36	83.98950000000001	273.013	1036.88	78.42319999999999	363.745	186.606	117.525	212.277	468.671	42.8966	227.535	386.391	30.6481	273.156	380.806	31.0965	158.811	275.582	55.6372	161.251	359.886	126.932	215.871	426.776	30.064	268.303	432.678	30.3432	172.634	-0	0	0	478.945	1001.03	247.02	-200	0	0	-0	0	200	-0	200	0	
193	3.8	610.203	1438.7	289.98	760.5839999999999	1341.26	285.954	694.284	1376.15	458.341	678.273	1400.54	119.878	770.086	1178.69	282.686	507.706	1251.4	276.693	685.302	949.905	399.875	698.105	970.318	124.976	487.75	1000.06	287.242	489.875	999.896	208.364	490.651	1049.27	253.8	633.271	1059.74	541.552	-0	0	0	-0	0	0	-0	0	0	707.753	790.465	522.372	715.457	800.707	480.317	660.559	793.105	526.145	775.975	1082.77	33.8514	-0	0	0	-0	0	0	-0	0	0	979.928	918.201	97.1437	941.89	901.912	68.67959999999999	953.958	928.741	137.341	593.741	791.432	98.89360000000001	559.64	572.901	152.815	631.099	651.01	167.348	-0	0	0	-0	0	0	560.114	466.4	217.844	469.277	433.47	152.785	316.969	209.642	162.372	418.393	300.512	229.829	-0	0	0	-0	0	0	638.057	774.519	420.468	729.383	579.942	378.182	750.037	719.451	399.016	-0	0	0	-0	0	0	830.65	529.095	310.151	756.042	382.821	385.999	822.753	185.706	367.444	846.115	326.883	303.502	-0	0	0	-0	0	0	784.169	56.6896	309.165	1078.23	92.31180000000001	315.271	1008.63	61.6054	260.058	997.169	51.2192	376.305	886.919	31.582	363.08	933.128	134.499	318.099	1046.34	74.98909999999999	271.875	1039.88	69.7688	362.636	189.247	122.221	212.661	469.029	42.486	227.449	387.167	31.2243	273.612	381.353	31.1853	159.277	276.754	57.9631	161.696	362.871	127.774	215.863	426.959	30.0433	268.183	432.963	30.0512	172.554	-0	0	0	488.813	999.979	247.803	-200	0	0	-0	0	200	-0	200	0	
